<svg width="40" height="40" viewBox="0 0 40 40" fill="none" xmlns="http://www.w3.org/2000/svg">
<path d="M33.3333 21.6666C33.3333 29.9999 27.5 34.1666 20.5667 36.5833C20.2036 36.7063 19.8092 36.7004 19.45 36.5666C12.5 34.1666 6.66666 29.9999 6.66666 21.6666V9.99994C6.66666 9.55791 6.84225 9.13399 7.15481 8.82142C7.46737 8.50886 7.8913 8.33327 8.33332 8.33327C11.6667 8.33327 15.8333 6.33327 18.7333 3.79994C19.0864 3.49827 19.5356 3.33252 20 3.33252C20.4644 3.33252 20.9136 3.49827 21.2667 3.79994C24.1833 6.34994 28.3333 8.33327 31.6667 8.33327C32.1087 8.33327 32.5326 8.50886 32.8452 8.82142C33.1577 9.13399 33.3333 9.55791 33.3333 9.99994V21.6666Z" stroke="#D86633" stroke-width="3.33333" stroke-linecap="round" stroke-linejoin="round"/>
<path d="M15 20.0001L18.3333 23.3334L25 16.6667" stroke="#D86633" stroke-width="3.33333" stroke-linecap="round" stroke-linejoin="round"/>
</svg>
