<svg width="40" height="40" viewBox="0 0 40 40" fill="none" xmlns="http://www.w3.org/2000/svg">
<path d="M6.66667 23.3332C6.35128 23.3343 6.04206 23.2458 5.77493 23.0782C5.5078 22.9105 5.29373 22.6705 5.15759 22.386C5.02145 22.1015 4.96883 21.7842 5.00584 21.471C5.04285 21.1577 5.16797 20.8615 5.36667 20.6165L21.8667 3.61653C21.9904 3.47367 22.1591 3.37713 22.345 3.34275C22.5308 3.30838 22.7229 3.33822 22.8896 3.42737C23.0562 3.51652 23.1876 3.65969 23.2622 3.83338C23.3368 4.00706 23.3501 4.20094 23.3 4.3832L20.1 14.4165C20.0056 14.6691 19.974 14.9407 20.0077 15.2082C20.0414 15.4757 20.1394 15.731 20.2935 15.9522C20.4475 16.1735 20.653 16.3541 20.8921 16.4785C21.1313 16.6029 21.3971 16.6674 21.6667 16.6665H33.3333C33.6487 16.6655 33.958 16.7539 34.2251 16.9216C34.4922 17.0892 34.7063 17.3293 34.8424 17.6138C34.9786 17.8983 35.0312 18.2156 34.9942 18.5288C34.9572 18.842 34.832 19.1383 34.6333 19.3832L18.1333 36.3832C18.0096 36.5261 17.8409 36.6226 17.655 36.657C17.4692 36.6913 17.2771 36.6615 17.1105 36.5724C16.9438 36.4832 16.8124 36.34 16.7378 36.1663C16.6632 35.9927 16.6499 35.7988 16.7 35.6165L19.9 25.5832C19.9944 25.3307 20.0261 25.059 19.9924 24.7915C19.9587 24.524 19.8606 24.2687 19.7065 24.0475C19.5525 23.8262 19.3471 23.6457 19.1079 23.5213C18.8687 23.3969 18.6029 23.3323 18.3333 23.3332H6.66667Z" stroke="#D86633" stroke-width="3.33333" stroke-linecap="round" stroke-linejoin="round"/>
</svg>
