<svg width="40" height="40" viewBox="0 0 40 40" fill="none" xmlns="http://www.w3.org/2000/svg">
<path d="M11.6667 27.1668C15.3333 27.1668 18.3333 24.1168 18.3333 20.4168C18.3333 18.4835 17.3833 16.6502 15.4833 15.1002C13.5833 13.5502 12.15 11.2502 11.6667 8.8335C11.1833 11.2502 9.76667 13.5668 7.85 15.1002C5.93333 16.6335 5 18.5002 5 20.4168C5 24.1168 8 27.1668 11.6667 27.1668Z" stroke="#D86633" stroke-width="3.33333" stroke-linecap="round" stroke-linejoin="round"/>
<path d="M20.9334 11.0001C22.0796 9.16866 22.8922 7.14852 23.3334 5.03345C24.1667 9.20011 26.6667 13.2001 30 15.8668C33.3334 18.5334 35 21.7001 35 25.0334C35.0095 27.3373 34.3348 29.592 33.0614 31.5119C31.7879 33.4318 29.9731 34.9304 27.8469 35.8176C25.7208 36.7048 23.3791 36.9408 21.1186 36.4956C18.8582 36.0504 16.7809 34.944 15.15 33.3168" stroke="#D86633" stroke-width="3.33333" stroke-linecap="round" stroke-linejoin="round"/>
</svg>
