<svg width="40" height="40" viewBox="0 0 40 40" fill="none" xmlns="http://www.w3.org/2000/svg">
<path d="M21.3834 3.63336C20.9491 3.43527 20.4773 3.33276 20 3.33276C19.5227 3.33276 19.051 3.43527 18.6167 3.63336L4.33335 10.1334C4.0376 10.2638 3.78615 10.4774 3.60963 10.7481C3.4331 11.0189 3.33911 11.3351 3.33911 11.6584C3.33911 11.9816 3.4331 12.2978 3.60963 12.5686C3.78615 12.8394 4.0376 13.053 4.33335 13.1834L18.6334 19.7C19.0676 19.8981 19.5394 20.0006 20.0167 20.0006C20.494 20.0006 20.9657 19.8981 21.4 19.7L35.7 13.2C35.9958 13.0696 36.2472 12.856 36.4238 12.5853C36.6003 12.3145 36.6943 11.9983 36.6943 11.675C36.6943 11.3518 36.6003 11.0355 36.4238 10.7648C36.2472 10.494 35.9958 10.2804 35.7 10.15L21.3834 3.63336Z" stroke="#14206C" stroke-width="3.33333" stroke-linecap="round" stroke-linejoin="round"/>
<path d="M3.33326 20C3.33247 20.3188 3.42312 20.6311 3.59445 20.8999C3.76579 21.1687 4.01062 21.3828 4.29992 21.5167L18.6333 28.0333C19.0653 28.229 19.534 28.3301 20.0083 28.3301C20.4825 28.3301 20.9513 28.229 21.3833 28.0333L35.6833 21.5333C35.9783 21.4007 36.2283 21.1852 36.4029 20.9129C36.5775 20.6406 36.6691 20.3234 36.6666 20" stroke="#14206C" stroke-width="3.33333" stroke-linecap="round" stroke-linejoin="round"/>
<path d="M3.33326 28.3333C3.33247 28.652 3.42312 28.9643 3.59445 29.2332C3.76579 29.502 4.01062 29.716 4.29992 29.8499L18.6333 36.3666C19.0653 36.5622 19.534 36.6634 20.0083 36.6634C20.4825 36.6634 20.9513 36.5622 21.3833 36.3666L35.6833 29.8666C35.9783 29.734 36.2283 29.5184 36.4029 29.2461C36.5775 28.9739 36.6691 28.6567 36.6666 28.3333" stroke="#14206C" stroke-width="3.33333" stroke-linecap="round" stroke-linejoin="round"/>
</svg>
