<svg width="40" height="40" viewBox="0 0 40 40" fill="none" xmlns="http://www.w3.org/2000/svg">
<path d="M23.3333 30.0001V10.0001C23.3333 9.11603 22.9821 8.26818 22.3569 7.64306C21.7318 7.01794 20.884 6.66675 19.9999 6.66675H6.66659C5.78253 6.66675 4.93468 7.01794 4.30956 7.64306C3.68444 8.26818 3.33325 9.11603 3.33325 10.0001V28.3334C3.33325 28.7754 3.50885 29.1994 3.82141 29.5119C4.13397 29.8245 4.55789 30.0001 4.99992 30.0001H8.33325" stroke="white" stroke-width="3.33333" stroke-linecap="round" stroke-linejoin="round"/>
<path d="M25 30H15" stroke="white" stroke-width="3.33333" stroke-linecap="round" stroke-linejoin="round"/>
<path d="M31.6666 29.9999H34.9999C35.4419 29.9999 35.8659 29.8243 36.1784 29.5118C36.491 29.1992 36.6666 28.7753 36.6666 28.3333V22.2499C36.6659 21.8717 36.5366 21.5049 36.2999 21.2099L30.4999 13.9599C30.344 13.7647 30.1463 13.6071 29.9213 13.4986C29.6962 13.3901 29.4497 13.3336 29.1999 13.3333H23.3333" stroke="white" stroke-width="3.33333" stroke-linecap="round" stroke-linejoin="round"/>
<path d="M28.3333 33.3334C30.1743 33.3334 31.6667 31.841 31.6667 30.0001C31.6667 28.1591 30.1743 26.6667 28.3333 26.6667C26.4924 26.6667 25 28.1591 25 30.0001C25 31.841 26.4924 33.3334 28.3333 33.3334Z" stroke="white" stroke-width="3.33333" stroke-linecap="round" stroke-linejoin="round"/>
<path d="M11.6666 33.3334C13.5075 33.3334 14.9999 31.841 14.9999 30.0001C14.9999 28.1591 13.5075 26.6667 11.6666 26.6667C9.82564 26.6667 8.33325 28.1591 8.33325 30.0001C8.33325 31.841 9.82564 33.3334 11.6666 33.3334Z" stroke="white" stroke-width="3.33333" stroke-linecap="round" stroke-linejoin="round"/>
</svg>
